<svg width="19" height="19" viewBox="0 0 19 19" fill="none" xmlns="http://www.w3.org/2000/svg">
<g clip-path="url(#clip0_43_972)">
<path d="M18.874 10.1586H15.4982C12.5494 10.1586 10.1589 12.5491 10.1589 15.4979V18.8737C14.813 18.5286 18.5289 14.8127 18.874 10.1586Z" fill="#FAFAFA"/>
<path d="M8.74146 18.8737V15.4979C8.74146 12.5491 6.35099 10.1586 3.40219 10.1586H0.0263672C0.37145 14.8127 4.08736 18.5286 8.74146 18.8737Z" fill="#FAFAFA"/>
<path d="M18.874 8.74115C18.5289 4.08705 14.813 0.371143 10.1589 0.0260601V3.40188C10.1589 6.35067 12.5494 8.74115 15.4982 8.74115H18.874Z" fill="#FAFAFA"/>
<path d="M8.74146 0.0260601C4.08736 0.371143 0.37145 4.08705 0.0263672 8.74115H3.40219C6.35099 8.74115 8.74146 6.35067 8.74146 3.40188V0.0260601Z" fill="#FAFAFA"/>
<path d="M6.41809 9.44989C7.7281 8.79534 8.79571 7.72773 9.45022 6.41772C10.1048 7.72773 11.1723 8.79534 12.4824 9.44989C11.1723 10.1044 10.1048 11.172 9.45022 12.482C8.79571 11.172 7.7281 10.1044 6.41809 9.44989Z" fill="#CA9352"/>
</g>
<defs>
<clipPath id="clip0_43_972">
<rect width="18.9" height="18.9" fill="white"/>
</clipPath>
</defs>
</svg>
