<svg width="89" height="89" viewBox="0 0 89 89" fill="none" xmlns="http://www.w3.org/2000/svg">
<g clip-path="url(#clip0_20_109)">
<path d="M88.3545 47.5557H72.5513C58.7469 47.5557 47.5566 58.7462 47.5566 72.5503V88.3536C69.3438 86.738 86.7389 69.3428 88.3545 47.5557Z" fill="#775732"/>
<path d="M40.9211 88.3536V72.5503C40.9211 58.7462 29.7306 47.5557 15.9264 47.5557H0.123169C1.73861 69.3428 19.1339 86.738 40.9211 88.3536Z" fill="#775732"/>
<path d="M88.3545 40.92C86.7389 19.1328 69.3438 1.73748 47.5566 0.122044V15.9253C47.5566 29.7295 58.7469 40.92 72.5513 40.92H88.3545Z" fill="#775732"/>
<path d="M40.9211 0.122044C19.1339 1.73748 1.73861 19.1328 0.123169 40.92H15.9264C29.7306 40.92 40.9211 29.7295 40.9211 15.9253V0.122044Z" fill="#775732"/>
<path d="M30.0444 44.2378C36.177 41.1737 41.1748 36.1759 44.2387 30.0433C47.3029 36.1759 52.3005 41.1737 58.4332 44.2378C52.3005 47.3018 47.3029 52.2996 44.2387 58.4321C41.1748 52.2996 36.177 47.3018 30.0444 44.2378Z" fill="#CA9352"/>
</g>
<defs>
<clipPath id="clip0_20_109">
<rect width="88.4766" height="88.4766" fill="white"/>
</clipPath>
</defs>
</svg>
