<svg width="325" height="656" viewBox="0 0 325 656" fill="none" xmlns="http://www.w3.org/2000/svg">
<g filter="url(#filter0_i_43_896)">
<rect x="2.19543" width="319.792" height="655.684" rx="45.371" fill="#1A1A1A"/>
</g>
<rect x="2.56133" y="0.365895" width="319.061" height="654.952" rx="45.0051" stroke="url(#paint0_linear_43_896)" stroke-opacity="0.5" stroke-width="0.73179"/>
<rect x="5.12268" y="2.92717" width="313.938" height="649.83" rx="42.4438" fill="black"/>
<g filter="url(#filter1_i_43_896)">
<path d="M0.00012207 112.403C0.00012207 111.993 0.00012207 111.788 0.0798824 111.632C0.150042 111.494 0.261991 111.382 0.399686 111.312C0.556225 111.232 0.761145 111.232 1.17099 111.232H2.19549V133.186H1.17099C0.761145 133.186 0.556225 133.186 0.399686 133.106C0.261991 133.036 0.150042 132.924 0.0798824 132.786C0.00012207 132.63 0.00012207 132.425 0.00012207 132.015V112.403Z" fill="#333333"/>
</g>
<g filter="url(#filter2_i_43_896)">
<path d="M0.00012207 157.774C0.00012207 157.364 0.00012207 157.159 0.0798824 157.003C0.150042 156.865 0.261991 156.753 0.399686 156.683C0.556225 156.603 0.761145 156.603 1.17099 156.603H2.19549V203.438H1.17099C0.761145 203.438 0.556225 203.438 0.399686 203.358C0.261991 203.288 0.150042 203.176 0.0798824 203.038C0.00012207 202.882 0.00012207 202.677 0.00012207 202.267V157.774Z" fill="#333333"/>
</g>
<g filter="url(#filter3_i_43_896)">
<path d="M0.00012207 216.317C0.00012207 215.907 0.00012207 215.702 0.0798824 215.546C0.150042 215.408 0.261991 215.296 0.399686 215.226C0.556225 215.146 0.761145 215.146 1.17099 215.146H2.19549V261.981H1.17099C0.761145 261.981 0.556225 261.981 0.399686 261.901C0.261991 261.831 0.150042 261.719 0.0798824 261.581C0.00012207 261.425 0.00012207 261.22 0.00012207 260.81V216.317Z" fill="#333333"/>
</g>
<g filter="url(#filter4_i_43_896)">
<path d="M321.988 172.702H323.012C323.422 172.702 323.627 172.702 323.783 172.782C323.921 172.852 324.033 172.964 324.103 173.102C324.183 173.259 324.183 173.464 324.183 173.873V250.565C324.183 250.975 324.183 251.18 324.103 251.336C324.033 251.474 323.921 251.586 323.783 251.656C323.627 251.736 323.422 251.736 323.012 251.736H321.988V172.702Z" fill="#333333"/>
</g>
<g clip-path="url(#clip0_43_896)">
<rect x="18.2948" y="16.0994" width="287.594" height="623.485" rx="29.2716" fill="#FCF8F2"/>
<g opacity="0.8" filter="url(#filter5_f_43_896)">
<ellipse cx="130.258" cy="31.8329" rx="173.434" ry="129.893" fill="#E2B774"/>
</g>
<path d="M54.6375 30.8338C53.9258 30.8338 53.4188 31.3204 53.4188 31.9866V31.9911C53.4188 32.6142 53.8599 33.0735 54.4897 33.0735C54.94 33.0735 55.2265 32.8438 55.347 32.5846H55.3924C55.3924 32.6096 55.3902 32.6346 55.3902 32.6596C55.3652 33.2872 55.1446 33.7966 54.6239 33.7966C54.3351 33.7966 54.1328 33.6465 54.0463 33.4168L54.0395 33.3941H53.462L53.4665 33.4191C53.5711 33.9216 54.0213 34.2786 54.6239 34.2786C55.4493 34.2786 55.9473 33.6237 55.9473 32.5187V32.5141C55.9473 31.3317 55.3379 30.8338 54.6375 30.8338ZM54.6353 32.6233C54.2624 32.6233 53.9918 32.3504 53.9918 31.9707V31.9661C53.9918 31.6001 54.2805 31.3113 54.6421 31.3113C55.0059 31.3113 55.2901 31.6046 55.2901 31.9798V31.9843C55.2901 32.355 55.0059 32.6233 54.6353 32.6233ZM56.8864 32.0707C57.0956 32.0707 57.248 31.9116 57.248 31.7115C57.248 31.5091 57.0956 31.3522 56.8864 31.3522C56.6795 31.3522 56.5249 31.5091 56.5249 31.7115C56.5249 31.9116 56.6795 32.0707 56.8864 32.0707ZM56.8864 33.7579C57.0956 33.7579 57.248 33.601 57.248 33.3986C57.248 33.1963 57.0956 33.0394 56.8864 33.0394C56.6795 33.0394 56.5249 33.1963 56.5249 33.3986C56.5249 33.601 56.6795 33.7579 56.8864 33.7579ZM59.4173 34.1967H59.9789V33.5669H60.42V33.0826H59.9789V30.9156H59.149C58.7033 31.5932 58.2372 32.3481 57.812 33.0871V33.5669H59.4173V34.1967ZM58.3577 33.0962V33.0621C58.676 32.505 59.0557 31.8979 59.3923 31.384H59.4264V33.0962H58.3577ZM61.6866 34.1967H62.2733V30.9156H61.6889L60.8317 31.5182V32.0707L61.648 31.4932H61.6866V34.1967Z" fill="black"/>
<rect x="115.257" y="24.1491" width="91.4738" height="27.0762" rx="13.5381" fill="black"/>
<rect x="115.154" y="24.2451" width="58.5432" height="27.0762" rx="13.5381" fill="black"/>
<rect x="179.552" y="24.2451" width="27.0762" height="27.0762" rx="13.5381" fill="black"/>
<path d="M230.367 35.1259C230.367 34.7218 230.695 34.3941 231.099 34.3941H231.831C232.235 34.3941 232.563 34.7218 232.563 35.1259V40.9803C232.563 41.3844 232.235 41.712 231.831 41.712H231.099C230.695 41.712 230.367 41.3844 230.367 40.9803V35.1259Z" fill="black"/>
<path d="M234.026 33.6623C234.026 33.2582 234.354 32.9306 234.758 32.9306H235.49C235.894 32.9306 236.222 33.2582 236.222 33.6623V40.9803C236.222 41.3844 235.894 41.712 235.49 41.712H234.758C234.354 41.712 234.026 41.3844 234.026 40.9803V33.6623Z" fill="black"/>
<path d="M226.708 37.6872C226.708 37.283 227.036 36.9554 227.44 36.9554H228.172C228.576 36.9554 228.904 37.283 228.904 37.6872V40.9803C228.904 41.3844 228.576 41.712 228.172 41.712H227.44C227.036 41.712 226.708 41.3844 226.708 40.9803V37.6872Z" fill="black"/>
<path d="M223.049 39.5167C223.049 39.1125 223.377 38.7849 223.781 38.7849H224.513C224.917 38.7849 225.245 39.1125 225.245 39.5167V40.9803C225.245 41.3844 224.917 41.712 224.513 41.712H223.781C223.377 41.712 223.049 41.3844 223.049 40.9803V39.5167Z" fill="black"/>
<path fill-rule="evenodd" clip-rule="evenodd" d="M246.552 39.4574C247.591 38.5605 249.112 38.5604 250.151 39.4574C250.203 39.5057 250.234 39.5741 250.235 39.6459C250.236 39.7176 250.209 39.787 250.159 39.8373L248.532 41.5131C248.484 41.5623 248.419 41.5902 248.351 41.5903C248.284 41.5903 248.218 41.5623 248.171 41.5131L246.543 39.8373C246.493 39.787 246.465 39.7176 246.467 39.6459C246.468 39.574 246.499 39.5057 246.552 39.4574ZM244.351 37.4516C246.59 35.326 250.057 35.326 252.296 37.4516C252.346 37.5013 252.375 37.5696 252.376 37.641C252.376 37.7127 252.349 37.7825 252.3 37.8334L251.358 38.8031C251.261 38.9019 251.105 38.9043 251.006 38.808C250.27 38.1285 249.314 37.7523 248.322 37.7524C247.331 37.7529 246.376 38.1291 245.641 38.808C245.542 38.9045 245.385 38.9022 245.288 38.8031L244.347 37.8334C244.298 37.7826 244.271 37.7128 244.271 37.641C244.272 37.5695 244.301 37.5013 244.351 37.4516ZM242.154 35.4496C245.588 32.0909 251.005 32.0909 254.438 35.4496C254.488 35.4995 254.516 35.5672 254.516 35.6381C254.517 35.7093 254.489 35.778 254.44 35.8285L253.499 36.7983C253.402 36.8978 253.244 36.8992 253.145 36.8012C251.837 35.5318 250.102 34.8238 248.297 34.8236C246.491 34.8236 244.755 35.5317 243.447 36.8012C243.349 36.8993 243.19 36.898 243.094 36.7983L242.152 35.8285C242.103 35.778 242.075 35.7093 242.076 35.6381C242.076 35.5672 242.105 35.4994 242.154 35.4496Z" fill="black"/>
<path opacity="0.35" d="M263.297 33.1742H275.98C277.394 33.1743 278.541 34.3205 278.542 35.7348V39.394C278.542 40.8085 277.394 41.9554 275.98 41.9555H263.297C261.883 41.9553 260.737 40.8084 260.737 39.394V35.7348C260.737 34.3206 261.883 33.1745 263.297 33.1742Z" stroke="black" stroke-width="0.73179"/>
<path opacity="0.4" d="M279.639 36.467V39.5554C280.26 39.2938 280.664 38.6853 280.664 38.0112C280.664 37.337 280.26 36.7285 279.639 36.467Z" fill="black"/>
<path d="M261.834 35.7352C261.834 34.9269 262.489 34.2716 263.298 34.2716H275.98C276.788 34.2716 277.443 34.9269 277.443 35.7352V39.3941C277.443 40.2024 276.788 40.8577 275.98 40.8577H263.298C262.489 40.8577 261.834 40.2025 261.834 39.3941V35.7352Z" fill="black"/>
<path d="M105.091 95.4969H106.695V87.1249H106.75L110.169 95.4969H111.474L114.894 87.1249H114.949V95.4969H116.552V84.1535H114.524L110.845 93.2094H110.798L107.127 84.1535H105.091V95.4969ZM122.27 95.662C124.636 95.662 126.193 94.0269 126.193 91.362V91.3463C126.193 88.6971 124.621 87.0699 122.262 87.0699C119.912 87.0699 118.348 88.705 118.348 91.3463V91.362C118.348 94.019 119.896 95.662 122.27 95.662ZM122.278 94.2392C120.95 94.2392 120.085 93.1936 120.085 91.362V91.3463C120.085 89.5383 120.958 88.4927 122.262 88.4927C123.591 88.4927 124.456 89.5383 124.456 91.3463V91.362C124.456 93.1858 123.607 94.2392 122.278 94.2392ZM127.784 95.4969H129.482V90.6781C129.482 89.3889 130.252 88.5242 131.447 88.5242C132.626 88.5242 133.208 89.2238 133.208 90.4659V95.4969H134.914V90.1436C134.914 88.2412 133.868 87.0699 132.052 87.0699C130.802 87.0699 129.953 87.6359 129.521 88.477H129.482V87.2271H127.784V95.4969ZM139.924 95.662C141.111 95.662 142.023 95.0646 142.518 94.0977H142.55V95.4969H144.256V84.1535H142.55V88.6342H142.518C142.023 87.6595 141.08 87.0699 139.908 87.0699C137.833 87.0699 136.465 88.7207 136.465 91.3542V91.362C136.465 93.9955 137.817 95.662 139.924 95.662ZM140.372 94.1998C139.028 94.1998 138.203 93.1229 138.203 91.362V91.3542C138.203 89.609 139.036 88.5242 140.372 88.5242C141.646 88.5242 142.558 89.6405 142.558 91.3542V91.362C142.558 93.0836 141.654 94.1998 140.372 94.1998ZM148.708 95.6463C149.801 95.6463 150.76 95.0803 151.239 94.192H151.271V95.4969H152.976V89.7977C152.976 88.139 151.695 87.0699 149.675 87.0699C147.639 87.0699 146.405 88.1626 146.287 89.5854L146.279 89.6719H147.883L147.898 89.6011C148.04 88.9408 148.645 88.477 149.628 88.477C150.681 88.477 151.271 89.0273 151.271 89.9392V90.5602L149.022 90.6938C147.065 90.8117 145.949 91.6922 145.949 93.1307V93.1465C145.949 94.6322 147.057 95.6463 148.708 95.6463ZM147.662 93.1072V93.0914C147.662 92.3918 148.228 91.9437 149.25 91.8808L151.271 91.7551V92.3997C151.271 93.4766 150.367 94.2863 149.172 94.2863C148.26 94.2863 147.662 93.8304 147.662 93.1072ZM155.864 98.2561C157.484 98.2561 158.348 97.5958 158.962 95.8821L162.043 87.2271H160.251L158.168 93.9562H158.113L156.029 87.2271H154.19L157.201 95.5048L157.059 95.8978C156.776 96.6997 156.336 96.9119 155.534 96.9119C155.306 96.9119 155.11 96.8805 154.976 96.849V98.1775C155.18 98.2168 155.534 98.2561 155.864 98.2561ZM161.653 97.7766H162.848L163.996 93.7518H162.298L161.653 97.7766ZM171.642 95.6856C173.867 95.6856 175.18 94.3728 175.18 92.1403V84.1535H173.419V92.1245C173.419 93.4216 172.79 94.1134 171.627 94.1134C170.573 94.1134 170.031 93.4373 169.96 92.5726L169.952 92.5019H168.215L168.223 92.5962C168.317 94.4042 169.544 95.6856 171.642 95.6856ZM180.182 95.662C181.44 95.662 182.281 95.0881 182.714 94.2549H182.753V95.4969H184.459V87.2271H182.753V92.0538C182.753 93.343 181.983 94.1998 180.788 94.1998C179.609 94.1998 179.027 93.5081 179.027 92.2582V87.2271H177.329V92.5883C177.329 94.4907 178.367 95.662 180.182 95.662ZM186.419 95.4969H188.117V90.6781C188.117 89.3889 188.888 88.5242 190.082 88.5242C191.262 88.5242 191.843 89.2238 191.843 90.4659V95.4969H193.549V90.1436C193.549 88.2412 192.504 87.0699 190.688 87.0699C189.438 87.0699 188.589 87.6359 188.156 88.477H188.117V87.2271H186.419V95.4969ZM199 95.662C201.004 95.662 202.278 94.4671 202.545 93.1543L202.561 93.0679H200.949L200.926 93.1307C200.713 93.7518 200.045 94.2706 199.039 94.2706C197.687 94.2706 196.83 93.3587 196.799 91.7944H202.655V91.2205C202.655 88.7364 201.232 87.0699 198.913 87.0699C196.594 87.0699 195.101 88.7993 195.101 91.3856V91.3935C195.101 94.0033 196.571 95.662 199 95.662ZM198.921 88.4613C200.03 88.4613 200.831 89.1609 200.973 90.5916H196.822C196.972 89.2081 197.821 88.4613 198.921 88.4613ZM212.11 95.6856C214.5 95.6856 216.253 94.0583 216.253 91.7944V91.7787C216.253 89.6326 214.688 88.0525 212.519 88.0525C210.978 88.0525 209.83 88.8543 209.382 89.8763H209.343C209.343 89.7741 209.343 89.6719 209.351 89.5697C209.422 87.3214 210.216 85.4427 212.165 85.4427C213.25 85.4427 213.989 85.9772 214.311 86.8262L214.335 86.9048H216.103L216.08 86.8105C215.718 85.1204 214.201 83.9648 212.181 83.9648C209.343 83.9648 207.653 86.1973 207.653 89.9785V89.9942C207.653 94.0741 209.791 95.6856 212.11 95.6856ZM209.689 91.8022V91.7944C209.689 90.4501 210.734 89.4832 212.11 89.4832C213.494 89.4832 214.5 90.458 214.5 91.8258V91.8415C214.5 93.1622 213.431 94.2077 212.086 94.2077C210.742 94.2077 209.689 93.1465 209.689 91.8022Z" fill="#757575" style="mix-blend-mode:overlay"/>
<path d="M105.091 95.4969H106.695V87.1249H106.75L110.169 95.4969H111.474L114.894 87.1249H114.949V95.4969H116.552V84.1535H114.524L110.845 93.2094H110.798L107.127 84.1535H105.091V95.4969ZM122.27 95.662C124.636 95.662 126.193 94.0269 126.193 91.362V91.3463C126.193 88.6971 124.621 87.0699 122.262 87.0699C119.912 87.0699 118.348 88.705 118.348 91.3463V91.362C118.348 94.019 119.896 95.662 122.27 95.662ZM122.278 94.2392C120.95 94.2392 120.085 93.1936 120.085 91.362V91.3463C120.085 89.5383 120.958 88.4927 122.262 88.4927C123.591 88.4927 124.456 89.5383 124.456 91.3463V91.362C124.456 93.1858 123.607 94.2392 122.278 94.2392ZM127.784 95.4969H129.482V90.6781C129.482 89.3889 130.252 88.5242 131.447 88.5242C132.626 88.5242 133.208 89.2238 133.208 90.4659V95.4969H134.914V90.1436C134.914 88.2412 133.868 87.0699 132.052 87.0699C130.802 87.0699 129.953 87.6359 129.521 88.477H129.482V87.2271H127.784V95.4969ZM139.924 95.662C141.111 95.662 142.023 95.0646 142.518 94.0977H142.55V95.4969H144.256V84.1535H142.55V88.6342H142.518C142.023 87.6595 141.08 87.0699 139.908 87.0699C137.833 87.0699 136.465 88.7207 136.465 91.3542V91.362C136.465 93.9955 137.817 95.662 139.924 95.662ZM140.372 94.1998C139.028 94.1998 138.203 93.1229 138.203 91.362V91.3542C138.203 89.609 139.036 88.5242 140.372 88.5242C141.646 88.5242 142.558 89.6405 142.558 91.3542V91.362C142.558 93.0836 141.654 94.1998 140.372 94.1998ZM148.708 95.6463C149.801 95.6463 150.76 95.0803 151.239 94.192H151.271V95.4969H152.976V89.7977C152.976 88.139 151.695 87.0699 149.675 87.0699C147.639 87.0699 146.405 88.1626 146.287 89.5854L146.279 89.6719H147.883L147.898 89.6011C148.04 88.9408 148.645 88.477 149.628 88.477C150.681 88.477 151.271 89.0273 151.271 89.9392V90.5602L149.022 90.6938C147.065 90.8117 145.949 91.6922 145.949 93.1307V93.1465C145.949 94.6322 147.057 95.6463 148.708 95.6463ZM147.662 93.1072V93.0914C147.662 92.3918 148.228 91.9437 149.25 91.8808L151.271 91.7551V92.3997C151.271 93.4766 150.367 94.2863 149.172 94.2863C148.26 94.2863 147.662 93.8304 147.662 93.1072ZM155.864 98.2561C157.484 98.2561 158.348 97.5958 158.962 95.8821L162.043 87.2271H160.251L158.168 93.9562H158.113L156.029 87.2271H154.19L157.201 95.5048L157.059 95.8978C156.776 96.6997 156.336 96.9119 155.534 96.9119C155.306 96.9119 155.11 96.8805 154.976 96.849V98.1775C155.18 98.2168 155.534 98.2561 155.864 98.2561ZM161.653 97.7766H162.848L163.996 93.7518H162.298L161.653 97.7766ZM171.642 95.6856C173.867 95.6856 175.18 94.3728 175.18 92.1403V84.1535H173.419V92.1245C173.419 93.4216 172.79 94.1134 171.627 94.1134C170.573 94.1134 170.031 93.4373 169.96 92.5726L169.952 92.5019H168.215L168.223 92.5962C168.317 94.4042 169.544 95.6856 171.642 95.6856ZM180.182 95.662C181.44 95.662 182.281 95.0881 182.714 94.2549H182.753V95.4969H184.459V87.2271H182.753V92.0538C182.753 93.343 181.983 94.1998 180.788 94.1998C179.609 94.1998 179.027 93.5081 179.027 92.2582V87.2271H177.329V92.5883C177.329 94.4907 178.367 95.662 180.182 95.662ZM186.419 95.4969H188.117V90.6781C188.117 89.3889 188.888 88.5242 190.082 88.5242C191.262 88.5242 191.843 89.2238 191.843 90.4659V95.4969H193.549V90.1436C193.549 88.2412 192.504 87.0699 190.688 87.0699C189.438 87.0699 188.589 87.6359 188.156 88.477H188.117V87.2271H186.419V95.4969ZM199 95.662C201.004 95.662 202.278 94.4671 202.545 93.1543L202.561 93.0679H200.949L200.926 93.1307C200.713 93.7518 200.045 94.2706 199.039 94.2706C197.687 94.2706 196.83 93.3587 196.799 91.7944H202.655V91.2205C202.655 88.7364 201.232 87.0699 198.913 87.0699C196.594 87.0699 195.101 88.7993 195.101 91.3856V91.3935C195.101 94.0033 196.571 95.662 199 95.662ZM198.921 88.4613C200.03 88.4613 200.831 89.1609 200.973 90.5916H196.822C196.972 89.2081 197.821 88.4613 198.921 88.4613ZM212.11 95.6856C214.5 95.6856 216.253 94.0583 216.253 91.7944V91.7787C216.253 89.6326 214.688 88.0525 212.519 88.0525C210.978 88.0525 209.83 88.8543 209.382 89.8763H209.343C209.343 89.7741 209.343 89.6719 209.351 89.5697C209.422 87.3214 210.216 85.4427 212.165 85.4427C213.25 85.4427 213.989 85.9772 214.311 86.8262L214.335 86.9048H216.103L216.08 86.8105C215.718 85.1204 214.201 83.9648 212.181 83.9648C209.343 83.9648 207.653 86.1973 207.653 89.9785V89.9942C207.653 94.0741 209.791 95.6856 212.11 95.6856ZM209.689 91.8022V91.7944C209.689 90.4501 210.734 89.4832 212.11 89.4832C213.494 89.4832 214.5 90.458 214.5 91.8258V91.8415C214.5 93.1622 213.431 94.2077 212.086 94.2077C210.742 94.2077 209.689 93.1465 209.689 91.8022Z" fill="#757575" fill-opacity="0.3" style="mix-blend-mode:soft-light"/>
<path d="M105.091 95.4969H106.695V87.1249H106.75L110.169 95.4969H111.474L114.894 87.1249H114.949V95.4969H116.552V84.1535H114.524L110.845 93.2094H110.798L107.127 84.1535H105.091V95.4969ZM122.27 95.662C124.636 95.662 126.193 94.0269 126.193 91.362V91.3463C126.193 88.6971 124.621 87.0699 122.262 87.0699C119.912 87.0699 118.348 88.705 118.348 91.3463V91.362C118.348 94.019 119.896 95.662 122.27 95.662ZM122.278 94.2392C120.95 94.2392 120.085 93.1936 120.085 91.362V91.3463C120.085 89.5383 120.958 88.4927 122.262 88.4927C123.591 88.4927 124.456 89.5383 124.456 91.3463V91.362C124.456 93.1858 123.607 94.2392 122.278 94.2392ZM127.784 95.4969H129.482V90.6781C129.482 89.3889 130.252 88.5242 131.447 88.5242C132.626 88.5242 133.208 89.2238 133.208 90.4659V95.4969H134.914V90.1436C134.914 88.2412 133.868 87.0699 132.052 87.0699C130.802 87.0699 129.953 87.6359 129.521 88.477H129.482V87.2271H127.784V95.4969ZM139.924 95.662C141.111 95.662 142.023 95.0646 142.518 94.0977H142.55V95.4969H144.256V84.1535H142.55V88.6342H142.518C142.023 87.6595 141.08 87.0699 139.908 87.0699C137.833 87.0699 136.465 88.7207 136.465 91.3542V91.362C136.465 93.9955 137.817 95.662 139.924 95.662ZM140.372 94.1998C139.028 94.1998 138.203 93.1229 138.203 91.362V91.3542C138.203 89.609 139.036 88.5242 140.372 88.5242C141.646 88.5242 142.558 89.6405 142.558 91.3542V91.362C142.558 93.0836 141.654 94.1998 140.372 94.1998ZM148.708 95.6463C149.801 95.6463 150.76 95.0803 151.239 94.192H151.271V95.4969H152.976V89.7977C152.976 88.139 151.695 87.0699 149.675 87.0699C147.639 87.0699 146.405 88.1626 146.287 89.5854L146.279 89.6719H147.883L147.898 89.6011C148.04 88.9408 148.645 88.477 149.628 88.477C150.681 88.477 151.271 89.0273 151.271 89.9392V90.5602L149.022 90.6938C147.065 90.8117 145.949 91.6922 145.949 93.1307V93.1465C145.949 94.6322 147.057 95.6463 148.708 95.6463ZM147.662 93.1072V93.0914C147.662 92.3918 148.228 91.9437 149.25 91.8808L151.271 91.7551V92.3997C151.271 93.4766 150.367 94.2863 149.172 94.2863C148.26 94.2863 147.662 93.8304 147.662 93.1072ZM155.864 98.2561C157.484 98.2561 158.348 97.5958 158.962 95.8821L162.043 87.2271H160.251L158.168 93.9562H158.113L156.029 87.2271H154.19L157.201 95.5048L157.059 95.8978C156.776 96.6997 156.336 96.9119 155.534 96.9119C155.306 96.9119 155.11 96.8805 154.976 96.849V98.1775C155.18 98.2168 155.534 98.2561 155.864 98.2561ZM161.653 97.7766H162.848L163.996 93.7518H162.298L161.653 97.7766ZM171.642 95.6856C173.867 95.6856 175.18 94.3728 175.18 92.1403V84.1535H173.419V92.1245C173.419 93.4216 172.79 94.1134 171.627 94.1134C170.573 94.1134 170.031 93.4373 169.96 92.5726L169.952 92.5019H168.215L168.223 92.5962C168.317 94.4042 169.544 95.6856 171.642 95.6856ZM180.182 95.662C181.44 95.662 182.281 95.0881 182.714 94.2549H182.753V95.4969H184.459V87.2271H182.753V92.0538C182.753 93.343 181.983 94.1998 180.788 94.1998C179.609 94.1998 179.027 93.5081 179.027 92.2582V87.2271H177.329V92.5883C177.329 94.4907 178.367 95.662 180.182 95.662ZM186.419 95.4969H188.117V90.6781C188.117 89.3889 188.888 88.5242 190.082 88.5242C191.262 88.5242 191.843 89.2238 191.843 90.4659V95.4969H193.549V90.1436C193.549 88.2412 192.504 87.0699 190.688 87.0699C189.438 87.0699 188.589 87.6359 188.156 88.477H188.117V87.2271H186.419V95.4969ZM199 95.662C201.004 95.662 202.278 94.4671 202.545 93.1543L202.561 93.0679H200.949L200.926 93.1307C200.713 93.7518 200.045 94.2706 199.039 94.2706C197.687 94.2706 196.83 93.3587 196.799 91.7944H202.655V91.2205C202.655 88.7364 201.232 87.0699 198.913 87.0699C196.594 87.0699 195.101 88.7993 195.101 91.3856V91.3935C195.101 94.0033 196.571 95.662 199 95.662ZM198.921 88.4613C200.03 88.4613 200.831 89.1609 200.973 90.5916H196.822C196.972 89.2081 197.821 88.4613 198.921 88.4613ZM212.11 95.6856C214.5 95.6856 216.253 94.0583 216.253 91.7944V91.7787C216.253 89.6326 214.688 88.0525 212.519 88.0525C210.978 88.0525 209.83 88.8543 209.382 89.8763H209.343C209.343 89.7741 209.343 89.6719 209.351 89.5697C209.422 87.3214 210.216 85.4427 212.165 85.4427C213.25 85.4427 213.989 85.9772 214.311 86.8262L214.335 86.9048H216.103L216.08 86.8105C215.718 85.1204 214.201 83.9648 212.181 83.9648C209.343 83.9648 207.653 86.1973 207.653 89.9785V89.9942C207.653 94.0741 209.791 95.6856 212.11 95.6856ZM209.689 91.8022V91.7944C209.689 90.4501 210.734 89.4832 212.11 89.4832C213.494 89.4832 214.5 90.458 214.5 91.8258V91.8415C214.5 93.1622 213.431 94.2077 212.086 94.2077C210.742 94.2077 209.689 93.1465 209.689 91.8022Z" fill="url(#paint1_linear_43_896)" fill-opacity="0.9" style="mix-blend-mode:overlay"/>
<path d="M113.046 179.27C104.721 179.27 99.0392 175.018 96.9668 170.908C96.3951 169.836 96.1807 168.979 96.1807 168.05C96.1807 166.12 97.467 164.763 99.6109 164.763C101.29 164.763 102.291 165.513 103.613 167.335C106.043 170.908 108.651 172.624 113.261 172.624C121.515 172.624 125.802 165.156 126.017 152.757V152.185H125.874C123.801 157.223 118.37 160.582 111.724 160.582C102.005 160.582 94.6085 153.507 94.6085 143.609C94.6085 133.247 102.541 125.743 113.439 125.743C121.372 125.743 127.625 129.817 131.019 137.249C132.806 141.215 133.735 146.039 133.735 151.792C133.735 169.086 126.053 179.27 113.046 179.27ZM113.439 154.079C119.764 154.079 124.48 149.612 124.48 143.502C124.48 137.356 119.728 132.568 113.546 132.568C107.401 132.568 102.541 137.32 102.541 143.323C102.541 149.576 107.186 154.079 113.439 154.079ZM144.94 144.288C142.331 144.288 140.259 142.216 140.259 139.607C140.259 136.999 142.331 134.926 144.94 134.926C147.548 134.926 149.621 136.999 149.621 139.607C149.621 142.216 147.548 144.288 144.94 144.288ZM144.94 170.337C142.331 170.337 140.259 168.264 140.259 165.656C140.259 163.012 142.331 160.975 144.94 160.975C147.548 160.975 149.621 163.012 149.621 165.656C149.621 168.264 147.548 170.337 144.94 170.337ZM185.338 178.984C183.122 178.984 181.514 177.447 181.514 174.982V168.05H160.29C157.431 168.05 155.609 166.263 155.609 163.512C155.609 161.69 156.038 160.26 157.395 157.902C161.04 151.363 167.436 141.787 174.082 132.139C177.227 127.494 179.263 126.065 182.622 126.065C186.803 126.065 189.197 128.244 189.197 132.104V161.332H193.27C195.378 161.332 196.772 162.69 196.772 164.691C196.772 166.692 195.378 168.05 193.27 168.05H189.197V174.982C189.197 177.447 187.589 178.984 185.338 178.984ZM181.586 161.439V133.14H181.443C172.689 145.682 167.293 153.757 163.113 161.225V161.439H181.586ZM217.625 178.984C215.302 178.984 213.694 177.34 213.694 174.91V134.855H213.515L204.618 141.072C203.832 141.644 203.117 141.894 202.224 141.894C200.473 141.894 199.223 140.643 199.223 138.821C199.223 137.499 199.723 136.57 201.224 135.534L211.943 127.923C214.123 126.386 215.302 126.065 217.017 126.065C219.84 126.065 221.519 127.744 221.519 130.531V174.91C221.519 177.34 219.911 178.984 217.625 178.984Z" fill="#424242"/>
</g>
<defs>
<filter id="filter0_i_43_896" x="2.19543" y="0" width="319.792" height="655.684" filterUnits="userSpaceOnUse" color-interpolation-filters="sRGB">
<feFlood flood-opacity="0" result="BackgroundImageFix"/>
<feBlend mode="normal" in="SourceGraphic" in2="BackgroundImageFix" result="shape"/>
<feColorMatrix in="SourceAlpha" type="matrix" values="0 0 0 0 0 0 0 0 0 0 0 0 0 0 0 0 0 0 127 0" result="hardAlpha"/>
<feOffset/>
<feGaussianBlur stdDeviation="2.92716"/>
<feComposite in2="hardAlpha" operator="arithmetic" k2="-1" k3="1"/>
<feColorMatrix type="matrix" values="0 0 0 0 1 0 0 0 0 1 0 0 0 0 1 0 0 0 0.9 0"/>
<feBlend mode="normal" in2="shape" result="effect1_innerShadow_43_896"/>
</filter>
<filter id="filter1_i_43_896" x="0.00012207" y="111.232" width="2.9271" height="21.9537" filterUnits="userSpaceOnUse" color-interpolation-filters="sRGB">
<feFlood flood-opacity="0" result="BackgroundImageFix"/>
<feBlend mode="normal" in="SourceGraphic" in2="BackgroundImageFix" result="shape"/>
<feColorMatrix in="SourceAlpha" type="matrix" values="0 0 0 0 0 0 0 0 0 0 0 0 0 0 0 0 0 0 127 0" result="hardAlpha"/>
<feOffset dx="0.73179"/>
<feGaussianBlur stdDeviation="0.73179"/>
<feComposite in2="hardAlpha" operator="arithmetic" k2="-1" k3="1"/>
<feColorMatrix type="matrix" values="0 0 0 0 1 0 0 0 0 1 0 0 0 0 1 0 0 0 0.5 0"/>
<feBlend mode="normal" in2="shape" result="effect1_innerShadow_43_896"/>
</filter>
<filter id="filter2_i_43_896" x="0.00012207" y="156.603" width="2.9271" height="46.8346" filterUnits="userSpaceOnUse" color-interpolation-filters="sRGB">
<feFlood flood-opacity="0" result="BackgroundImageFix"/>
<feBlend mode="normal" in="SourceGraphic" in2="BackgroundImageFix" result="shape"/>
<feColorMatrix in="SourceAlpha" type="matrix" values="0 0 0 0 0 0 0 0 0 0 0 0 0 0 0 0 0 0 127 0" result="hardAlpha"/>
<feOffset dx="0.73179"/>
<feGaussianBlur stdDeviation="0.73179"/>
<feComposite in2="hardAlpha" operator="arithmetic" k2="-1" k3="1"/>
<feColorMatrix type="matrix" values="0 0 0 0 1 0 0 0 0 1 0 0 0 0 1 0 0 0 0.5 0"/>
<feBlend mode="normal" in2="shape" result="effect1_innerShadow_43_896"/>
</filter>
<filter id="filter3_i_43_896" x="0.00012207" y="215.146" width="2.9271" height="46.8346" filterUnits="userSpaceOnUse" color-interpolation-filters="sRGB">
<feFlood flood-opacity="0" result="BackgroundImageFix"/>
<feBlend mode="normal" in="SourceGraphic" in2="BackgroundImageFix" result="shape"/>
<feColorMatrix in="SourceAlpha" type="matrix" values="0 0 0 0 0 0 0 0 0 0 0 0 0 0 0 0 0 0 127 0" result="hardAlpha"/>
<feOffset dx="0.73179"/>
<feGaussianBlur stdDeviation="0.73179"/>
<feComposite in2="hardAlpha" operator="arithmetic" k2="-1" k3="1"/>
<feColorMatrix type="matrix" values="0 0 0 0 1 0 0 0 0 1 0 0 0 0 1 0 0 0 0.5 0"/>
<feBlend mode="normal" in2="shape" result="effect1_innerShadow_43_896"/>
</filter>
<filter id="filter4_i_43_896" x="321.256" y="172.702" width="2.9271" height="79.0333" filterUnits="userSpaceOnUse" color-interpolation-filters="sRGB">
<feFlood flood-opacity="0" result="BackgroundImageFix"/>
<feBlend mode="normal" in="SourceGraphic" in2="BackgroundImageFix" result="shape"/>
<feColorMatrix in="SourceAlpha" type="matrix" values="0 0 0 0 0 0 0 0 0 0 0 0 0 0 0 0 0 0 127 0" result="hardAlpha"/>
<feOffset dx="-0.73179"/>
<feGaussianBlur stdDeviation="0.73179"/>
<feComposite in2="hardAlpha" operator="arithmetic" k2="-1" k3="1"/>
<feColorMatrix type="matrix" values="0 0 0 0 1 0 0 0 0 1 0 0 0 0 1 0 0 0 0.5 0"/>
<feBlend mode="normal" in2="shape" result="effect1_innerShadow_43_896"/>
</filter>
<filter id="filter5_f_43_896" x="-189.534" y="-244.418" width="639.585" height="552.502" filterUnits="userSpaceOnUse" color-interpolation-filters="sRGB">
<feFlood flood-opacity="0" result="BackgroundImageFix"/>
<feBlend mode="normal" in="SourceGraphic" in2="BackgroundImageFix" result="shape"/>
<feGaussianBlur stdDeviation="73.179" result="effect1_foregroundBlur_43_896"/>
</filter>
<linearGradient id="paint0_linear_43_896" x1="162.092" y1="0" x2="162.092" y2="655.684" gradientUnits="userSpaceOnUse">
<stop stop-color="white" stop-opacity="0.6"/>
<stop offset="1" stop-color="white" stop-opacity="0.3"/>
</linearGradient>
<linearGradient id="paint1_linear_43_896" x1="140.694" y1="94.5178" x2="140.694" y2="86.2528" gradientUnits="userSpaceOnUse">
<stop stop-color="#757575"/>
<stop offset="1" stop-color="#757575" stop-opacity="0"/>
</linearGradient>
<clipPath id="clip0_43_896">
<rect x="18.2948" y="16.0994" width="287.594" height="623.485" rx="29.2716" fill="white"/>
</clipPath>
</defs>
</svg>
