<svg width="350" height="98" viewBox="0 0 350 98" fill="none" xmlns="http://www.w3.org/2000/svg">
<g opacity="0.1">
<path d="M355.919 12.0865C328.674 10.3553 319.592 -1.12495 306.829 -25.0878C296.438 -44.495 283.757 -52.6041 263.221 -53.0596C229.594 -53.7885 195.15 -42.8549 161.769 -32.3769C154.733 -30.1902 147.451 -27.9123 140.497 -25.8167C131.497 -23.1744 122.333 -20.3499 113.415 -17.5254C72.2619 -4.86061 29.7174 8.25974 -13.2361 12.0865L-13.3179 11.1754C29.6356 7.3486 72.0982 -5.68062 113.17 -18.3454C122.088 -21.0788 131.251 -23.9033 140.251 -26.6367C147.205 -28.7323 154.487 -31.0102 161.523 -33.1969C194.904 -43.6749 229.513 -54.5175 263.221 -53.8797C283.839 -53.4241 297.093 -44.9505 307.483 -25.4523C320.165 -1.76274 329.083 9.53533 355.919 11.2665V12.0865Z" fill="#8DABC4"/>
<path d="M355.755 24.2046C328.592 22.4734 319.592 10.902 306.747 -13.0608C296.356 -32.468 283.674 -40.5771 263.057 -40.9415C229.43 -41.5793 194.904 -30.7368 161.523 -20.2588C154.487 -18.0721 147.205 -15.7942 140.251 -13.6986C131.251 -11.0563 122.087 -8.23179 113.251 -5.49839C72.0978 7.34861 29.5534 20.469 -13.4001 24.2046L-13.4819 23.2935C29.4716 19.5578 71.9342 6.52859 113.006 -6.2273C121.842 -8.9607 131.005 -11.7852 140.005 -14.4275C146.96 -16.5231 154.241 -18.801 161.277 -20.9877C194.74 -31.4657 229.267 -42.3082 263.057 -41.7616C283.756 -41.3971 297.011 -32.9235 307.483 -13.4253C320.165 10.2642 329.082 21.6534 355.836 23.3846L355.755 24.2046Z" fill="#8DABC4"/>
<path d="M355.591 36.3227C328.592 34.5004 319.51 23.0201 306.665 -1.03383C296.274 -20.441 283.593 -28.459 262.893 -28.8234C229.267 -29.3701 194.74 -18.5276 161.359 -8.04957C154.323 -5.86285 147.041 -3.58501 140.005 -1.4894C131.005 1.15289 121.924 3.97741 113.088 6.71082C72.016 19.3756 29.4716 32.4959 -13.5637 36.1405L-13.6455 35.2293C29.308 31.5848 71.7706 18.4645 112.842 5.79968C121.678 3.06628 130.842 0.241758 139.842 -2.40053C146.878 -4.49614 154.159 -6.77398 161.196 -8.96071C194.658 -19.4388 229.185 -30.3724 262.975 -29.7346C283.756 -29.3701 297.011 -20.9877 307.483 -1.4894C320.246 22.2001 329.164 33.5893 355.755 35.4116L355.591 36.3227Z" fill="#8DABC4"/>
<path d="M355.509 48.4408C328.592 46.6185 319.592 35.0471 306.665 10.9932C296.438 -8.04956 283.265 -16.3409 262.73 -16.7053C261.993 -16.7053 261.175 -16.7053 260.357 -16.7053C227.385 -16.7053 193.677 -6.13618 161.114 4.15964C154.078 6.34637 146.796 8.6242 139.76 10.7198C130.842 13.3621 121.679 16.1866 112.842 18.92C71.7706 31.6759 29.2262 44.7963 -13.7273 48.4408L-13.8091 47.5297C29.1444 43.8851 71.607 30.8559 112.679 18.1C121.515 15.3666 130.678 12.5421 139.596 9.8998C146.632 7.80419 153.914 5.52634 160.95 3.33962C194.413 -7.13843 229.021 -17.9809 262.811 -17.5254C283.675 -17.1609 297.011 -8.77847 307.401 10.6287C320.165 34.4093 329.083 45.7985 355.591 47.6208L355.509 48.4408Z" fill="#8DABC4"/>
<path d="M355.346 60.65C328.592 58.7366 319.51 47.2563 306.583 23.1112C296.356 4.06852 283.184 -4.22281 262.566 -4.49615C228.858 -4.95172 194.331 5.89078 160.869 16.3688C153.832 18.5556 146.551 20.8334 139.515 22.929C130.597 25.5713 121.433 28.3958 112.679 31.1292C71.6071 43.794 29.0627 56.9143 -13.8908 60.4678L-13.9727 59.5566C28.899 56.0032 71.3616 42.8829 112.433 30.2181C121.27 27.4847 130.351 24.6602 139.269 22.0179C146.305 19.9223 153.587 17.6444 160.623 15.4577C194.086 4.97965 228.694 -5.95397 262.484 -5.4984C283.429 -5.22506 296.765 3.15738 307.156 22.5646C320.001 46.3452 328.919 57.7344 355.264 59.6477L355.346 60.65Z" fill="#8DABC4"/>
<path d="M355.264 72.7681C328.592 70.8547 319.592 59.2833 306.583 35.1382C296.356 16.0955 283.102 7.89529 262.484 7.62195C228.776 7.2575 194.168 18.1 160.787 28.5781C153.751 30.7648 146.469 33.0426 139.433 35.1382C130.515 37.7805 121.433 40.605 112.597 43.3384C71.5255 56.0032 28.9811 69.1236 -13.9724 72.677L-14.0542 71.7658C28.8175 68.3035 71.2801 55.1832 112.352 42.4273C121.188 39.6939 130.27 36.8694 139.188 34.2271C146.224 32.1315 153.505 29.8536 160.542 27.6669C194.004 17.1889 228.613 6.25525 262.484 6.71082C283.429 6.98416 296.847 15.3666 307.32 34.6827C320.492 59.01 329.001 69.9436 355.346 71.857L355.264 72.7681Z" fill="#8DABC4"/>
<path d="M355.1 84.8862C328.591 82.9728 319.51 71.3103 306.501 47.2563C296.274 28.3047 283.02 20.1045 262.32 19.8311C228.612 19.4667 194.004 30.3092 160.541 40.7872C153.505 42.974 146.223 45.2518 139.187 47.3474C130.269 49.9897 121.187 52.8142 112.433 55.5476C71.2794 68.2124 28.735 81.3328 -14.2185 84.7951L-14.3003 83.8839C28.5714 80.4216 71.034 67.3013 112.106 54.6365C120.86 51.9031 129.942 49.0786 138.86 46.4363C145.896 44.3407 153.177 42.0628 160.214 39.8761C193.676 29.3981 228.367 18.4645 262.238 18.8289C283.265 19.0111 296.683 27.3936 307.156 46.7096C320.328 71.128 328.837 81.9706 355.1 83.9751V84.8862Z" fill="#8DABC4"/>
<path d="M354.936 97.0043C328.428 94.9998 319.837 83.975 306.419 59.2833C296.192 40.3317 282.938 32.1315 262.075 31.9492C228.285 31.5848 193.677 42.5184 160.296 52.9965C153.26 55.1832 145.896 57.461 138.86 59.6477C129.942 62.29 120.86 65.1145 112.106 67.8479C71.0343 80.5127 28.4899 93.6331 -14.4636 97.0954L-14.5454 96.1842C28.3263 92.813 70.7889 79.6927 111.861 67.0279C120.615 64.2945 129.697 61.5611 138.614 58.8277C145.651 56.7321 152.932 54.4543 159.969 52.2675C193.513 41.7895 228.121 30.8559 261.993 31.2203C283.102 31.4026 296.602 39.6939 306.992 59.0099C320.165 83.4283 328.755 94.362 354.855 96.3665L354.936 97.0043Z" fill="#8DABC4"/>
<path d="M354.854 109.122C328.51 107.118 319.837 96.002 306.419 71.3103C296.192 52.3587 282.856 44.2496 261.993 44.0674C228.121 43.794 193.595 54.6365 160.132 65.2057C153.096 67.3924 145.732 69.7614 138.696 71.857C129.86 74.4993 120.778 77.3238 112.024 79.9661C70.9523 92.5397 28.4079 105.751 -14.5456 109.031L-14.6274 108.12C28.2442 104.749 70.7068 91.6286 111.779 78.9638C120.533 76.2304 129.615 73.497 138.451 70.8547C145.487 68.7591 152.768 66.4813 159.886 64.2034C193.431 53.7254 228.121 42.7918 261.993 43.0651C283.183 43.2473 296.683 51.5387 307.074 70.7636C320.328 95.2731 328.837 106.207 354.854 108.211V109.122Z" fill="#8DABC4"/>
<path d="M354.691 121.24C328.428 119.145 319.837 108.12 306.337 83.3372C296.11 64.4767 282.774 56.3677 261.829 56.1854C261.502 56.1854 261.175 56.1854 260.929 56.1854C227.385 56.1854 193.104 66.9368 159.968 77.3238C152.932 79.5105 145.568 81.8794 138.532 83.975C129.696 86.6173 120.614 89.4418 111.86 92.0841C70.7884 104.749 28.3258 117.96 -14.6277 121.24L-14.7095 120.329C28.1622 117.049 70.6248 103.929 111.615 91.2641C120.369 88.5307 129.369 85.7973 138.287 83.155C145.323 81.0594 152.605 78.7816 159.723 76.5037C193.267 66.0257 227.957 55.0921 261.829 55.2743C283.101 55.3654 296.601 63.6567 307.074 82.8817C320.328 107.391 328.919 118.325 354.772 120.42L354.691 121.24Z" fill="#8DABC4"/>
<path d="M354.527 133.359C327.037 131.172 318.692 118.143 306.256 95.3642C296.029 76.5037 282.693 68.3946 261.666 68.3035C261.421 68.3035 261.175 68.3035 260.93 68.3035C227.303 68.3035 192.94 79.0549 159.641 89.533C152.605 91.7197 145.242 94.0886 138.205 96.1843C129.369 98.8265 120.369 101.651 111.615 104.293C70.5433 116.958 28.0807 130.17 -14.8728 133.359L-14.9546 132.447C27.9171 129.167 70.3797 116.047 111.37 103.382C120.124 100.649 129.124 97.9154 137.96 95.2731C144.996 93.1775 152.36 90.8997 159.396 88.6218C192.94 78.0527 227.63 67.2102 261.584 67.3924C282.938 67.4835 296.52 75.6837 306.91 94.9087C319.183 117.414 327.364 130.352 354.527 132.539V133.359Z" fill="#8DABC4"/>
<path d="M354.445 145.477C327.037 143.199 318.692 130.17 306.256 107.391C296.029 88.5307 282.611 80.5127 261.502 80.4216C261.338 80.4216 261.175 80.4216 261.011 80.4216C227.303 80.4216 192.776 91.2641 159.477 101.742C152.359 103.929 145.078 106.298 138.041 108.393C129.205 111.036 120.206 113.769 111.451 116.503C70.4613 129.076 27.9987 142.288 -14.9548 145.477L-15.0366 144.566C27.8351 141.377 70.2159 128.256 111.288 115.591C120.042 112.858 129.042 110.125 137.878 107.482C144.914 105.387 152.277 103.109 159.314 100.831C192.695 90.353 227.221 79.5105 261.093 79.5105C261.257 79.5105 261.42 79.5105 261.584 79.5105C283.02 79.6016 296.601 87.8018 306.992 106.936C319.264 129.532 327.528 142.379 354.527 144.566L354.445 145.477Z" fill="#8DABC4"/>
<path d="M354.282 157.595C327.037 155.317 318.692 142.288 306.174 119.418C295.947 100.649 282.529 92.6308 261.339 92.5397C261.257 92.5397 261.175 92.5397 261.094 92.5397C227.222 92.5397 192.695 103.382 159.232 113.86C152.114 116.047 144.833 118.416 137.715 120.512C128.879 123.154 119.879 125.887 111.206 128.621C70.2982 141.285 27.8356 154.406 -15.1179 157.595L-15.1997 156.684C27.672 153.586 70.0528 140.465 111.124 127.71C119.797 124.976 128.797 122.243 137.633 119.6C144.669 117.505 152.033 115.227 159.069 112.949C192.613 102.38 227.385 91.5374 261.339 91.5374C282.857 91.5374 296.438 99.7377 306.829 118.871C319.51 142.105 327.365 154.406 354.282 156.592V157.595Z" fill="#8DABC4"/>
</g>
</svg>
